<svg xmlns="http://www.w3.org/2000/svg" viewBox="0 0 48 48">
  <defs>
    <linearGradient id="bg" x1="0" y1="0" x2="1" y2="1">
      <stop offset="0%" stop-color="#10b981"/>
      <stop offset="100%" stop-color="#047857"/>
    </linearGradient>
    <linearGradient id="gd" x1="0" y1="0" x2="1" y2="1">
      <stop offset="0%" stop-color="#fbbf24"/>
      <stop offset="100%" stop-color="#d97706"/>
    </linearGradient>
  </defs>
  <rect width="48" height="48" rx="10" fill="url(#bg)"/>
  <!-- Trophy cup -->
  <path d="M14,16 Q24,38 24,38 Q24,38 34,16 Z" fill="url(#gd)" opacity="0.95"/>
  <!-- Handles -->
  <path d="M16,18 Q10,22 14,28" fill="none" stroke="url(#gd)" stroke-width="2.5" stroke-linecap="round"/>
  <path d="M32,18 Q38,22 34,28" fill="none" stroke="url(#gd)" stroke-width="2.5" stroke-linecap="round"/>
  <!-- Base -->
  <rect x="19" y="38" width="10" height="3" rx="1.5" fill="url(#gd)"/>
  <rect x="16" y="40" width="16" height="3" rx="1.5" fill="url(#gd)"/>
  <!-- Star -->
  <polygon points="24,20 25.5,23.5 29,24 26.5,26.5 27,30 24,28 21,30 21.5,26.5 19,24 22.5,23.5" fill="#fff" opacity="0.9"/>
</svg>
